<svg width="34" height="28" viewBox="0 0 34 28" fill="none" xmlns="http://www.w3.org/2000/svg">
<path d="M15.2947 0L15.8276 1.12214C13.4828 2.04835 11.6353 3.0458 10.2853 4.1145C8.97074 5.18321 7.81609 6.57252 6.82132 8.28244C5.36468 10.8117 4.51202 13.2875 4.26332 15.7099C5.2581 15.3893 6.11076 15.229 6.82132 15.229C8.77534 15.229 10.3563 15.8168 11.5643 16.9924C12.8077 18.1679 13.4295 19.6641 13.4295 21.4809C13.4295 23.2977 12.8077 24.8473 11.5643 26.1298C10.3563 27.3766 8.88192 28 7.14107 28C5.0094 28 3.28631 27.145 1.97179 25.4351C0.657262 23.7252 0 21.4809 0 18.7023C0 15.9237 0.657262 13.1629 1.97179 10.4198C3.32184 7.67685 5.08046 5.43257 7.24765 3.68702C9.59248 1.83461 12.2748 0.605598 15.2947 0ZM33.5204 0L34 1.12214C31.6552 2.04835 29.8077 3.0458 28.4577 4.1145C27.1432 5.18321 26.0063 6.57252 25.047 8.28244C23.5549 10.8117 22.6844 13.2875 22.4357 15.7099C23.4305 15.3893 24.2832 15.229 24.9937 15.229C26.9478 15.229 28.5287 15.8168 29.7367 16.9924C30.9801 18.1679 31.6019 19.6641 31.6019 21.4809C31.6019 23.2977 30.9801 24.8473 29.7367 26.1298C28.5287 27.3766 27.0543 28 25.3135 28C23.1818 28 21.4587 27.145 20.1442 25.4351C18.8297 23.7252 18.1724 21.4809 18.1724 18.7023C18.1724 15.9237 18.8297 13.1629 20.1442 10.4198C21.4943 7.67685 23.2706 5.43257 25.4734 3.68702C27.7827 1.83461 30.465 0.605598 33.5204 0Z" fill="#DF3143"/>
</svg>
